<?xml version="1.0" encoding="utf-8"?>
<!-- Generator: Adobe Illustrator 18.0.0, SVG Export Plug-In . SVG Version: 6.00 Build 0)  -->
<!DOCTYPE svg PUBLIC "-//W3C//DTD SVG 1.1//EN" "http://www.w3.org/Graphics/SVG/1.1/DTD/svg11.dtd">
<svg version="1.1" id="Layer_1" xmlns="http://www.w3.org/2000/svg" xmlns:xlink="http://www.w3.org/1999/xlink" x="0px" y="0px"
	 width="316" height="316" 
viewBox="0 0 395 395" enable-background="new 0 0 395 395" xml:space="preserve">
<path d="M197.5,385.2C94.1,385.2,9.8,300.9,9.8,197.5C9.8,94.1,94.1,9.8,197.5,9.8c103.4,0,187.7,84.3,187.7,187.7
	C385.2,300.9,300.9,385.2,197.5,385.2 M197.5,0C88.7,0,0,88.7,0,197.5C0,306.3,88.7,395,197.5,395C306.3,395,395,306.3,395,197.5
	C395,88.7,306.3,0,197.5,0"/>
<path d="M152.3,337.7c0-2.4,2.6-4.4,8.5-4.4c2.6,0,7.2,1,9.9,2.5c1.1,0.6,2.1,1.3,3.1,2c-4.2,3-9.5,4.5-13.6,4.5
	C155.1,342.3,152.3,340.2,152.3,337.7 M67.5,133.1c1.7,0,3.3,0.3,4.8,0.7c-16.8,11.1-31.5,25.5-40.4,43.6c-0.7,1.5-0.7,1.4-0.7-0.6
	C31.1,154.8,47.7,133.1,67.5,133.1 M101.7,103.9c-6.3,0-9.6-2.7-9.6-6.9c0-5.1,5.2-6.1,5.2-11.3c0-3.5-3-6.4-5.5-6.4
	c-1,0-1.7,0.3-1.7,0.9c0,0.8,1.4,0.9,1.4,2.7c0,6-12.3,4-12.3,12.5c0,5.4,3.5,9.9,14.1,11.9c1.8,0.3,1.3,0.5,0,0.8
	c-1.8,0.4-4.5,0.6-8.7,0.6c-10.9,0-16.3-4.1-16.3-9.3c0-12.1,21.1-34.7,43.3-47.7c27.3-16.1,46.2-20.2,56.9-20.2
	c8.9,0,12.4,2.2,12.4,8.8c0,3.4-1.1,6.7-3,9.6c-1.5-0.2-3-0.3-4.6-0.3c-19.1,0-26.3,7.3-26.6,15.4c-6.5-0.2-10.1-2.2-10.1-6
	c0-8.4,15.9-6.6,15.9-15.7c0-1.4-0.7-2.6-1.2-2.6c-1.6,0,0.4,5.4-13.9,7.3c-9.9,1.3-15.1,3.6-15.1,9.4c0,8.5,9.4,11.9,24.3,11.9
	c0.3,0,0.5,0,0.8,0c2.4,7.8,12.1,10.6,22.5,10c7.5-0.4,13.1,0.1,13.1,3.4c0,4-7.5,4.8-16.4,4.8c-0.9,0-1.7,0-2.6,0.1
	c-14.3-8.7-32.1-15.4-44.6-15.4c-8.3,0-15.1,2.8-15.1,10c0,7,8.1,11,13.8,11c3.2,0,5.7-0.3,5.7-1.7c0-1.4-5.5-2.3-5.5-6.3
	c0-3.2,2.8-4.8,6.9-4.8c8.7,0,19,3.8,28.1,8.7C133.4,92.8,117.4,103.9,101.7,103.9 M155.1,64.1c0-0.1,0-0.1,0-0.2
	c0-6.5,8.4-9.9,15.5-9.9c1.2,0,2.4,0.1,3.5,0.3C169.3,59,162.4,62.6,155.1,64.1 M183,338.5c5.5-5.1,9.1-11.3,9.1-16.6
	c0-7.4-5.9-12.3-15.6-12.3c-15.9,0-20.2,5.1-38.8,5.1c-3.9,0-8.8-1.1-8.8-5.2c0-4.6,6.5-7,18.6-8.3c18.4-2,39.8-8.6,39.8-24
	c0-7.9-5.3-12.2-13.8-12.2c-13.6,0-16,10.8-18.2,14.2c-3.1,4.6-5.7,0.9-5.7,2.9c0,1.8,3.3,2.4,3.7,2.4c9.8,0,7.7-11.2,16.6-11.2
	c2,0,3.7,2,3.7,4.4c0,12.5-18.9,16.7-37.1,16.7c-24.2,0-39.2-3.3-53-9c4.3,0.5,8.9,0.8,13.7,0.8c38,0,56.4-14.6,56.4-25.7
	c0-8.8-6.3-14-16.4-14c-23.8,0-33.8,14.7-50.5,14.7c-5,0-8.5-0.6-8.5-4.4c0-4.4,6.3-6.7,6.3-11.5c0-2.5-2.1-3.7-3.5-3.7
	c-0.6,0-1.2,0.2-1.2,0.7c0,0.6,0.5,0.6,0.5,1.8c0,6.9-17.7,7.2-17.7,15.5c0,6.7,9.1,8.9,15.3,8.9c23.4,0,38-14.4,50.1-14.4
	c6.4,0,10.6,2.9,10.6,9.8c0,8.3-10.3,17.2-41.8,17.2c-50.5,0-67-30.1-67-69.6c0-31.5,20.5-57.2,47.6-74.8c1.9,1.8,3,4.1,3,6.5
	c0,12.4-20.1,9.5-20.1,19c0,10.1,19.1,6.6,19.1,13.6c0,3.4-2.8,4.3-2.8,5.4c0,0.6,0.6,0.8,1.2,0.8c2.9,0,8.5-3.5,8.5-9.5
	c0-7.5-12.5-5.6-12.5-10.3c0-6.4,20.1-4.3,20.1-21.2c0-4.1-2.1-7.9-5.5-11c23.4-12.6,50.1-19.5,72.4-19.5c14.9,0,15.6,5.8,15.6,7.9
	c0,2.6-1.6,4.6-3.2,5.1c-0.4,0.1-0.7,0.3-0.8,0.5c-0.1,0.4,0.6,0.9,1.5,0.9c7.8,0,13.6-4.8,13.6-11.7c0-6.4-7.3-14.4-17.5-21.6
	c2.1-0.1,4.2-0.1,6.5-0.1c8,0,15.2-3.5,15.2-7.4c0-14-29.8-4.5-35.6-15.8c9.4-1.8,18.2-6.1,25-11.3c2.3,1.7,3.6,3.8,3.6,5.6
	c0,7.1-7,5.4-7,7c0,1.5,1.9,2.3,4.7,2.3c6,0,11.8-3.9,11.8-9.3c0-4.4-2.9-8.1-7.8-10.4c4.9-5.1,7.9-10.7,7.9-15.7
	c0-10-7.8-13.8-20.5-13.8c-14.7,0-36.3,5.8-60.5,19.1c-16,8.8-30.6,19.5-41.2,30c-10.6,10.5-17.2,20.7-17.2,28.7
	c0,8.9,9,13.2,28.5,13.2c21.2,0,37.1-8.5,53.3-15.1c8.4-3.4,15.1-5.3,22.5-6.2c7.2,4.5,12.9,9.2,15.2,12.5c0.4,0.5,0.4,0.8-0.5,0.6
	c-3.2-0.7-7.3-1.1-12.1-1.1c-19,0-50,7.1-77.8,22.4c-4.3-2.6-9.5-4.2-14.4-4.2c-33.7,0-49.5,36.7-49.5,76.1c0,9.6,0.6,19,2.1,27.2
	c3,17.2,10.4,33.3,24,44.6c13.1,11.9,35.9,26.9,86.3,30.4c-2.8,0-13.9,4.2-13.9,10.2c0,5.3,5.8,8.1,16.8,8.1
	c14.4,0,23.5-4.6,32.2-4.6c8.8,0,12.8,3.9,12.8,11.1c0,3.4-1.1,6.2-2.8,8.5c-8.7-6.1-20.2-10.5-33.5-10.5
	c-11.9,0-23.1,5.4-23.1,13.6c0,7.6,9.2,11.7,16.3,11.7c3.7,0,5.8-1.2,5.8-2.4c0-0.5-0.5-0.8-1.4-0.8c-3.1,0-8.8-3.4-8.8-8.6
	c0-5.1,4.5-8.5,12.7-8.5c3.4,0,4.4,0.1,6.5,0.5c0.9,0.1,0.9,0.5,0.1,0.6c-3.3,0.4-8.1,3.5-8.1,8.5c0,6.7,6.6,10,15.7,10
	c6.7,0,13.3-2.5,18.8-6.3c3.2,3.6,5.1,7.5,5.1,11.3c0,5.9-5.1,10-14.1,10c-5.1,0-11.7-1-19.7-3.1c-11.8-3.2-27.1-9-41-18.1
	c-18.9-12.4-29.2-20.9-29.2-28.9c0-3.7,2.7-5.7,5.3-5.7c10.6,0,9.2,15.4,21,15.4c3.8,0,6-2.5,6-4.9c0-0.9-0.4-1-0.7-1
	c-0.9,0-1.8,1.4-3.7,1.4c-3.4,0-4.9-2.6-6.2-5.4c-4.2-8.7-9.4-16-20.5-16c-7.6,0-13.3,3.9-13.3,11.2c0,14.9,17.5,27.3,34.8,38.1
	c18.7,11.7,40,20.6,50.9,23.1c9.9,2.3,18.2,3.3,23.3,3.3c10.4,0,17.6-5.2,17.6-14C194.1,352.6,190,345,183,338.5"/>
<path d="M234.3,333.3c5.9,0,8.5,2,8.5,4.4c0,2.5-2.8,4.7-7.9,4.7c-4.1,0-9.5-1.4-13.6-4.5c0.9-0.7,2-1.4,3.1-2
	C227.1,334.2,231.7,333.3,234.3,333.3 M363.3,177.4c-8.9-18-23.7-32.5-40.4-43.6c1.4-0.5,3.1-0.7,4.8-0.7
	c19.8,0,36.4,21.7,36.4,43.7C364.1,178.8,364.1,178.9,363.3,177.4 M228.9,87.4c-8.9,0-16.4-0.8-16.4-4.8c0-3.3,5.6-3.8,13.1-3.4
	c10.4,0.6,20.1-2.3,22.5-10c0.3,0,0.5,0,0.8,0c14.9,0,24.3-3.5,24.3-11.9c0-5.8-5.2-8-15.1-9.4c-14.3-1.9-12.3-7.3-13.9-7.3
	c-0.5,0-1.2,1.2-1.2,2.6c0,9.1,15.9,7.2,15.9,15.7c0,3.7-3.6,5.8-10.1,6c-0.2-8.1-7.5-15.4-26.6-15.4c-1.6,0-3.2,0.1-4.6,0.3
	c-1.9-3-3-6.2-3-9.6c0-6.6,3.5-8.8,12.4-8.8c10.7,0,29.6,4.2,56.9,20.2C305.9,64.7,327,87.3,327,99.4c0,5.2-5.4,9.3-16.3,9.3
	c-4.2,0-7-0.1-8.7-0.6c-1.3-0.3-1.8-0.5,0-0.8c10.6-2,14.1-6.5,14.1-11.9c0-8.5-12.3-6.5-12.3-12.5c0-1.8,1.4-1.9,1.4-2.7
	c0-0.6-0.7-0.9-1.8-0.9c-2.5,0-5.5,2.9-5.5,6.4c0,5.3,5.2,6.2,5.2,11.3c0,4.2-3.3,6.9-9.6,6.9c-15.7,0-31.7-11.1-51.2-15.1
	c9.1-4.8,19.4-8.7,28.1-8.7c4.1,0,6.9,1.6,6.9,4.8c0,4-5.6,4.9-5.6,6.3c0,1.4,2.5,1.7,5.7,1.7c5.6,0,13.8-4,13.8-11
	c0-7.2-6.8-10-15.1-10c-12.5,0-30.3,6.7-44.6,15.4C230.6,87.5,229.8,87.4,228.9,87.4 M221.1,54.3c1.1-0.2,2.3-0.3,3.5-0.3
	c7.1,0,15.5,3.4,15.5,9.9v0.2C232.8,62.6,225.9,59,221.1,54.3 M325.7,122.7c-4.9,0-10.1,1.6-14.4,4.2
	c-27.9-15.3-58.8-22.4-77.8-22.4c-4.7,0-8.9,0.4-12.1,1.1c-0.9,0.2-0.8-0.2-0.5-0.6c2.4-3.2,8.1-8,15.2-12.5c7.4,1,14,2.8,22.5,6.2
	c16.2,6.6,32.1,15.1,53.3,15.1c19.5,0,28.5-4.3,28.5-13.2c0-8-6.6-18.3-17.2-28.8c-10.6-10.5-25.2-21.2-41.2-30
	c-24.2-13.3-45.8-19.1-60.5-19.1c-12.7,0-20.5,3.8-20.5,13.7c0,5,3,10.6,7.9,15.7c-4.9,2.3-7.8,6-7.8,10.4c0,5.4,5.8,9.3,11.8,9.3
	c2.8,0,4.7-0.8,4.7-2.3c0-1.5-7,0.1-7-7c0-1.8,1.3-4,3.6-5.6c6.8,5.3,15.6,9.5,25,11.3c-5.8,11.2-35.6,1.8-35.6,15.8
	c0,3.9,7.2,7.4,15.2,7.4c2.3,0,4.5,0,6.5,0.1c-10.3,7.2-17.5,15.2-17.5,21.6c0,6.9,5.8,11.7,13.6,11.7c0.9,0,1.6-0.4,1.5-0.9
	c0-0.2-0.3-0.4-0.8-0.5c-1.5-0.5-3.2-2.5-3.2-5.1c0-2.1,0.7-7.9,15.6-7.9c22.3,0,48.9,6.9,72.3,19.5c-3.3,3.1-5.4,6.9-5.4,11
	c0,16.9,20.2,14.8,20.2,21.2c0,4.7-12.5,2.8-12.5,10.3c0,6,5.5,9.5,8.5,9.5c0.6,0,1.2-0.2,1.2-0.8c0-1.2-2.8-2-2.8-5.4
	c0-7,19.1-3.5,19.1-13.6c0-9.5-20.1-6.6-20.1-19c0-2.4,1.1-4.7,3-6.5c27.1,17.6,47.6,43.3,47.6,74.8c0,39.5-16.6,69.6-67,69.6
	c-31.5,0-41.8-8.9-41.8-17.1c0-6.8,4.3-9.8,10.6-9.8c12.1,0,26.7,14.4,50.1,14.4c6.2,0,15.3-2.2,15.3-8.9c0-8.3-17.7-8.6-17.7-15.5
	c0-1.2,0.5-1.1,0.5-1.8c0-0.5-0.6-0.7-1.2-0.7c-1.4,0-3.5,1.2-3.5,3.7c0,4.9,6.3,7.2,6.3,11.5c0,3.8-3.5,4.4-8.5,4.4
	c-16.7,0-26.7-14.7-50.5-14.7c-10.1,0-16.4,5.1-16.4,14c0,11.1,18.4,25.7,56.4,25.7c4.9,0,9.4-0.3,13.8-0.8c-13.8,5.7-28.9,9-53,9
	c-18.2,0-37.1-4.2-37.1-16.7c0-2.4,1.6-4.4,3.7-4.4c8.8,0,6.8,11.2,16.6,11.2c0.4,0,3.7-0.5,3.7-2.4c0-2-2.6,1.7-5.7-2.9
	c-2.3-3.4-4.6-14.2-18.2-14.2c-8.5,0-13.8,4.2-13.8,12.2c0,15.4,21.4,21.9,39.8,24c12.1,1.3,18.6,3.7,18.6,8.3c0,4.1-5,5.2-8.8,5.2
	c-18.6,0-22.9-5.1-38.8-5.1c-9.6,0-15.5,4.8-15.5,12.3c0,5.3,3.6,11.5,9.1,16.6c-7.1,6.5-11.2,14.1-11.2,20.2c0,8.8,7.2,14,17.6,14
	c5.1,0,13.4-1,23.3-3.3c10.9-2.5,32.2-11.4,50.9-23.1c17.3-10.8,34.8-23.1,34.8-38.1c0-7.4-5.7-11.2-13.3-11.2
	c-11.1,0-16.3,7.3-20.5,16c-1.3,2.8-2.8,5.3-6.2,5.3c-1.9,0-2.8-1.4-3.7-1.4c-0.3,0-0.7,0.1-0.7,1c0,2.4,2.2,4.9,6,4.9
	c11.8,0,10.4-15.4,21-15.4c2.6,0,5.3,2,5.3,5.7c0,7.9-10.3,16.5-29.2,28.9c-13.8,9.1-29.2,14.9-41,18.1c-8,2.2-14.6,3.1-19.7,3.1
	c-9,0-14.1-4.2-14.1-10c0-3.8,1.9-7.7,5.1-11.3c5.5,3.8,12.1,6.3,18.8,6.3c9.1,0,15.7-3.3,15.7-10c0-4.9-4.8-8.1-8.1-8.5
	c-0.8-0.1-0.8-0.5,0.2-0.6c2.1-0.3,3.1-0.4,6.5-0.4c8.2,0,12.7,3.3,12.7,8.5c0,5.2-5.7,8.6-8.8,8.6c-0.9,0-1.4,0.2-1.4,0.7
	c0,1.2,2,2.4,5.8,2.4c7.1,0,16.3-4,16.3-11.7c0-8.2-11.2-13.6-23.1-13.6c-13.3,0-24.8,4.4-33.5,10.4c-1.7-2.3-2.8-5.1-2.8-8.5
	c0-7.2,4.1-11.1,12.8-11.1c8.8,0,17.8,4.6,32.2,4.6c11,0,16.8-2.8,16.8-8.1c0-6-11.1-10.2-13.9-10.2c50.4-3.4,73.2-18.4,86.3-30.4
	c13.6-11.2,21-27.3,24-44.6c1.5-8.2,2.1-17.6,2.1-27.2C375.2,159.3,359.3,122.7,325.7,122.7"/>
<path d="M145.2,181.2l0,3.1h15.6v-3.1c-3.5-0.6-4.6-3.2-4.6-7.6v-10l0.1-10.2c0-4.1,1-7.2,4.4-7.6l0-3.1h-15.4v3.1
	c3.3,0.4,4.4,3.2,4.4,7.6l-0.1,20.2C149.6,177.7,148.6,180.7,145.2,181.2"/>
<path d="M269.3,149.6c1.3,0,1.8,1.2,2.2,2.2c0.7,1.7,1.7,4.1,2.7,6.9c-4.4,2.7-8.5,7.5-12.6,15.5c-2.2-2.1-3.1-5.1-3.1-8.5
	C258.6,156.7,265.5,149.6,269.3,149.6 M254.9,184.3h11.4c-0.3-9.7,4.4-17.1,9.9-20.3c1.6,4.6,3.1,9,3.7,10.9c1.3,4,0.7,5.9-2.8,6.4
	l0,3.1h17.8l0-3.1c-4.2-1.4-5.7-2.2-7.9-8.1c-1.6-4.2-2.9-7.8-4-11c3.2,0.3,3.2,2.4,5.3,2.4c1.9,0,2.9-2,2.9-3.6
	c0-3.1-2.1-5.3-6.2-5.3c-1.4,0-2.7,0.1-4,0.4c-0.2-0.5-0.3-0.9-0.5-1.4c-2.4-7-1.7-8.4,1.7-8.9l0-3.1H259v3.1
	c1.1,0.1,2.2,0.5,2.2,1.7c0,2.2-9.6,6.9-9.6,23.1C251.5,175.2,252.2,179.5,254.9,184.3"/>
<path d="M113.2,230.8l0,3H131v-3.1c-2.7-1.2-4-2.3-9-8.3c-2.5-3-5.5-6.8-8.4-10.5c3.2-4.2,6.3-8.2,7.9-10.3c3.7-4.8,5.8-5.9,9.1-6.3
	v-3.1h-18.2l0,3.1c3.4,0.5,3.9,2.1,0.3,6.9c-0.9,1.2-2,2.7-3.3,4.3c-1.2-1.6-2.4-3.1-3.3-4.3c-3.6-4.8-3.1-6.4,0.3-6.9v-3.1H87.2
	v3.1c3.3,0.4,6.4,1.5,10.2,6.3c1.6,2.1,4.7,6.1,7.9,10.3c-2.8,3.7-5.8,7.5-8.4,10.5c-5,6-6.3,7.1-9,8.3v3.1h17.8l0-3
	c-3.5-0.6-4.7-2.3-2.4-5.4c0.8-1.1,3.2-4.3,6.1-8c2.9,3.8,5.3,6.9,6.1,8C117.9,228.5,116.6,230.2,113.2,230.8"/>
<path d="M144.7,204.1c0-6.2,3.5-8.9,10.3-8.9c5,0,9.3,2,9.3,5.9c0,5.9-5.8,10.9-14.6,10.9c-2.6,0-5.1-0.5-5.1-5.5 M147.8,215.9
	c1.4,0,2.7,0.2,4.6,0.2c14.8,0,23.3-9,23.3-16.9c0-4.9-3.5-7.4-12.7-7.4c-3,0-9.7,0.4-13.8,0.4h-15.4v3.1c3.3,0.4,4.4,3.2,4.4,7.6
	l-0.1,20.2c0,4-1,7.1-4.4,7.6l0,3.1h15.6v-3.1c-3.5-0.6-4.6-3.2-4.6-7.6v-4C144.6,216.5,146.6,215.9,147.8,215.9"/>
<path d="M201.5,230.8v3.1h17.1v-3.1c-7.6-1-12.3-9.7-17.5-17.8c0.4,0.1,1.1,0.3,2.3,0.3c8.2,0,15.6-6.2,15.6-14.1
	c0-5-2.8-7.3-13.7-7.3c-3,0-9.7,0.4-13.8,0.4h-15.5v3.1c3.3,0.4,4.4,3.2,4.4,7.6l-0.1,20.3c0,4-1,7.1-4.4,7.6l0,3h15.6l0-3.1
	c-3.5-0.6-4.6-3.2-4.6-7.6l0-10.3l0.1-8.8c0-6.2,3.5-8.9,10.3-8.9c5,0,10.5,1.4,10.5,6.1c0,5.9-4.8,6.8-7.6,6.8
	c-4.6,0-7.1-2.2-8.8-4.2c-0.8,1-1.6,1.7-2.5,3c6.4,9.2,11.2,16.7,12.9,19.1C203.5,228.5,203.4,230.5,201.5,230.8"/>
<path d="M292.5,205.2c1.3,0.7,1.9,1.2,3.2,2c3.9-1.1,8.8-4.1,8.8-8.4c0-3.1-2.7-7.8-15.6-7.8c-13,0-17.9,4.9-17.9,8.6
	c0,10.6,24.9,15.3,24.9,24.3c0,3.4-2.1,6.2-10.3,6.2c-5.5,0-9.4-2.1-9.4-5.5c0-4.9,3.2-6.1,3.2-8.1c0-1-0.5-1.5-1.6-1.5
	c-2.4,0-11.7,5.9-11.7,13.8c0,3.2,2.8,4.8,7.8,4.8c3.1,0,4.3,0.1,12.8,0.1c8.5,0,9.7-0.1,12.7-0.1c5,0,7.8-1.6,7.8-4.8
	c0-14.4-26.3-21.5-26.3-27.9c0-2,2.5-3.5,7.6-3.5c4.3,0,7.3,1.3,7.3,3.1C295.5,202.4,294.2,203.9,292.5,205.2"/>
<path d="M202.6,147.9c1.8-2,2.4-4.3,1.8-5.4c-1.2,0-7,0.1-12.1,0.1c-5.1,0-15.7-0.5-18.9-0.5c-6.9,0-10.2,0.6-10.2,4.1
	c0,6.4,7.1,12.9,9.9,14.1c0.9-0.8,1.7-1.6,2.6-2.4c-1.2-1.2-2-4.1-2-5.5c0-3.8,4.1-6.5,9.1-6.5c4.5,0,5.9,2.1,5.9,4.4
	c0,1.6-0.9,3.2-2.5,5.1c-1.5,2-19.2,21.6-20.8,23.4c-1.9,2.1-1.5,5.1-1.5,5.1h40.2c0.7-1,1.2-1.4,1.2-4.7c0-7.9-9.3-13.8-11.7-13.8
	c-1.1,0-1.6,0.6-1.6,1.5c0,2.1,3.2,3.2,3.2,8.1c0,3.4-3.9,5.1-9.3,5.1c-3.2,0-7.3-1.1-7.3-4.5c0-1.6,1.2-3.2,3-5.1
	C183.3,168.9,200,150.8,202.6,147.9"/>
<path d="M246.8,148.1c1.9-2,2.4-4.3,1.9-5.4c-1.2,0-7,0.1-12.1,0.1c-5.1,0-15.7-0.5-18.9-0.5c-6.9,0-10.2,0.6-10.2,4.1
	c0,6.5,7.1,12.9,9.9,14.1c0.9-0.9,1.8-1.6,2.6-2.4c-1.2-1.2-2-4.1-2-5.5c0-3.8,4.1-6.6,9.1-6.6c4.5,0,5.9,2.2,5.9,4.4
	c0,1.6-0.9,3.2-2.5,5.1c-1.5,1.9-19.2,21.6-20.8,23.4c-1.8,2.1-1.5,5.1-1.5,5.1h40.2c0.7-1,1.2-1.5,1.2-4.7
	c0-7.9-9.3-13.8-11.7-13.8c-1.1,0-1.6,0.5-1.6,1.5c0,2.1,3.2,3.2,3.2,8.1c0,3.4-3.9,5.1-9.3,5.1c-3.3,0-7.3-1.1-7.3-4.5
	c0-1.6,1.2-3.2,3-5.1C227.6,169.1,244.3,151,246.8,148.1"/>
<path d="M320.9,215.2c-2.4,0-11.7,5.9-11.7,13.8c0,3.2,2.7,4.8,7.8,4.8c3.1,0,4.3,0.1,12.8,0.1s9.7-0.1,12.8-0.1
	c5,0,7.8-1.6,7.8-4.8c0-14.5-26.3-21.5-26.3-27.9c0-2,2.4-3.5,7.6-3.5c4.4,0,7.3,1.3,7.3,3.1c0,1.6-1.3,3.2-3.1,4.5
	c1.3,0.7,1.9,1.2,3.2,2c3.9-1.1,8.7-4.1,8.7-8.4c0-3.1-2.7-7.8-15.6-7.8c-13,0-17.9,4.9-17.9,8.6c0,10.6,24.9,15.3,24.9,24.3
	c0,3.4-2.1,6.2-10.3,6.2c-5.5,0-9.4-2.1-9.4-5.5c0-4.9,3.2-6.1,3.2-8.1C322.6,215.7,322,215.2,320.9,215.2"/>
<path d="M117.8,162.5c-2.6,0-5.1-0.5-5.1-5.5v-2.5c0-6.2,3.5-8.9,10.3-8.9c5,0,9.3,2,9.3,5.9C132.4,157.5,126.6,162.5,117.8,162.5
	 M143.7,149.7c0-4.9-3.5-7.4-12.7-7.4c-3,0-9.7,0.4-13.8,0.4h-15.4v3.1c3.3,0.4,4.4,3.2,4.4,7.6l-0.1,20.3c0,4-1,7.1-4.4,7.6l0,3.1
	h15.7l0-3.1c-3.5-0.6-4.6-3.2-4.6-7.6v-4c0-2.6,2-3.2,3.1-3.2c1.4,0,2.7,0.2,4.5,0.2C135.2,166.5,143.7,157.6,143.7,149.7"/>
<path d="M221.9,192.2v3.1c3.3,0.4,4.4,3.3,4.4,7.6l-0.1,20.2c0,4-1,7.1-4.4,7.6l0,3.1h15.6c8.5,0,14.9,0.2,18,0.2c5,0,7.8-1.8,7.8-5
	c0-7.9-9.3-13.8-11.7-13.8c-1.1,0-1.6,0.5-1.6,1.5c0,2.1,3.1,3.2,3.1,8.1c0,3.4-2.9,5.8-8.7,5.8c-8.4,0-11.5-3.9-11.5-13.5l0-4.2
	l0-1.1c0.9-0.2,2.3-0.4,4.5-0.4c2.4,0,7.9,0.8,12.6,0.8c4.7,0,7.3-1.1,7.3-3.2c0-2-1.4-3.4-2.1-4.1c-0.4-0.4-0.6-0.1-1.2,0.4
	c-1.6,1.1-3.2,2.2-7.4,2.2c-4.2,0-9.9-0.9-13.7-0.3l0-3c0-6.2,3.5-8.9,10.3-8.9c3.9,0,6.4,1.1,6.4,3.5c0,0.8-0.4,1.6-0.6,2.3
	c0.7,0.7,1.3,1.2,2.1,1.9c4-1.8,7.3-5.2,7.3-8.1c0-1.8-0.9-2.7-3.1-2.7c-3,0-13.9,0.2-18,0.2"/>
<path d="M45.2,230.7l0,3h15.6c8.5,0,14.9,0.2,18,0.2c5,0,7.8-1.8,7.8-5c0-7.9-9.3-13.8-11.7-13.8c-1.1,0-1.6,0.5-1.6,1.5
	c0,2.1,3.1,3.2,3.1,8.1c0,3.4-2.9,5.8-8.7,5.8c-8.4,0-11.5-3.9-11.5-13.5l0-4.2l0-1.1c0.9-0.2,2.3-0.4,4.5-0.4
	c2.4,0,7.9,0.8,12.6,0.8c4.7,0,7.3-1.1,7.3-3.2c0-2-1.4-3.4-2.1-4.1c-0.4-0.4-0.6-0.1-1.2,0.4c-1.6,1.1-3.2,2.2-7.4,2.2
	c-4.2,0-9.9-0.9-13.7-0.3l0-3c0-6.2,3.5-8.9,10.3-8.9c3.9,0,6.4,1.1,6.4,3.5c0,0.8-0.3,1.6-0.6,2.2c0.7,0.7,1.3,1.2,2.1,1.9
	c4.1-1.8,7.3-5.2,7.3-8.1c0-1.9-0.9-2.7-3.1-2.7c-3,0-13.9,0.2-18,0.2H45.3v3.1c3.3,0.4,4.4,3.2,4.4,7.6l-0.1,20.2
	C49.6,227.2,48.6,230.2,45.2,230.7"/>
</svg>
